<svg width="181" height="22" viewBox="0 0 181 22" fill="none" xmlns="http://www.w3.org/2000/svg">
<path d="M158.119 21.315C156.59 21.315 155.242 20.9843 154.074 20.3207C152.902 19.655 151.986 18.7393 151.322 17.5692C150.657 16.3971 150.328 15.0493 150.328 13.5237C150.328 11.9981 150.659 10.6462 151.322 9.47819C151.988 8.30609 152.898 7.39032 154.061 6.72675C155.223 6.06111 156.559 5.73242 158.064 5.73242C159.569 5.73242 160.863 6.08591 162.053 6.78876C163.244 7.49161 164.127 8.50041 164.703 9.81102L161.797 11.4131L161.607 11.0017C161.291 10.3464 160.803 9.82135 160.147 9.42651C159.492 9.03168 158.748 8.83116 157.917 8.83116C157.086 8.83116 156.379 9.03581 155.746 9.44099C155.11 9.85029 154.616 10.4043 154.258 11.1051C153.9 11.8079 153.722 12.6162 153.722 13.532C153.722 14.4478 153.904 15.2519 154.27 15.9589C154.638 16.6659 155.145 17.2178 155.786 17.623C156.433 18.0323 157.156 18.2328 157.971 18.2328C158.785 18.2328 159.546 18.0199 160.203 17.592C160.858 17.1641 161.342 16.5832 161.663 15.8535L161.797 15.4545L164.759 17.0442C164.183 18.392 163.304 19.4421 162.128 20.1966C160.947 20.9491 159.612 21.3253 158.126 21.3253L158.121 21.3212L158.119 21.315Z" fill="#46ADB4"/>
<path d="M77.3653 21.3489C75.8583 21.3489 74.5271 21.0181 73.3736 20.3525C72.2201 19.6869 71.3167 18.7711 70.6655 17.599C70.0143 16.4269 69.6836 15.077 69.6836 13.5514C69.6836 12.0258 70.004 10.6718 70.651 9.50381C71.2981 8.33171 72.1952 7.41594 73.3446 6.7503C74.494 6.08466 75.8046 5.75391 77.2764 5.75391C78.7483 5.75391 80.1147 6.08466 81.2682 6.7503C82.4176 7.41594 83.3147 8.33171 83.9618 9.50381C84.6088 10.6759 84.9292 12.0258 84.9292 13.5514C84.9292 15.077 84.6088 16.431 83.9618 17.599C83.3147 18.7711 82.4217 19.6869 81.2827 20.3525C80.1436 21.0181 78.8351 21.3489 77.3653 21.3489ZM77.3653 18.2832C78.1984 18.2832 78.9281 18.0786 79.5524 17.6734C80.1767 17.2682 80.6687 16.7101 81.0263 16.0072C81.384 15.3044 81.5617 14.4858 81.5617 13.5514C81.5617 12.617 81.386 11.8025 81.0263 11.0956C80.6687 10.3927 80.1664 9.83457 79.5235 9.42939C78.8765 9.02422 78.1364 8.81957 77.3054 8.81957C76.4744 8.81957 75.7384 9.02422 75.0997 9.42939C74.463 9.8387 73.9689 10.3927 73.6113 11.0956C73.2537 11.8025 73.0759 12.6212 73.0759 13.5514C73.0759 14.4816 73.2578 15.3044 73.6258 16.0072C73.9937 16.7101 74.5002 17.2682 75.1431 17.6734C75.7901 18.0827 76.5302 18.2832 77.3612 18.2832H77.3653Z" fill="#46ADB4"/>
<path d="M101.697 20.945L95.4727 0.105469H98.9559L105.058 20.947H101.695L101.697 20.945ZM102.144 20.945L108.008 0.105469H111.196L105.362 20.947H102.144V20.945ZM113.993 20.945L108.246 0.105469H111.431L117.358 20.947H113.991L113.993 20.945ZM114.319 20.945L120.449 0.105469H123.961L117.648 20.947H114.313H114.317L114.319 20.945Z" fill="#46ADB4"/>
<path d="M128.828 21.2633C127.042 21.2633 125.655 20.8685 124.673 20.0726C123.691 19.2767 123.199 18.1563 123.199 16.7092C123.199 15.1609 123.72 13.9785 124.762 13.164C125.804 12.3495 127.259 11.9443 129.126 11.9443H133.118V14.5035H130.201C128.87 14.5035 127.939 14.6855 127.4 15.0534C126.864 15.4214 126.596 15.9423 126.596 16.6162C126.596 17.193 126.829 17.6436 127.294 17.9702C127.759 18.2969 128.411 18.4643 129.244 18.4643C129.98 18.4643 130.616 18.2927 131.164 17.9434C131.708 17.594 132.136 17.1392 132.444 16.5749C132.752 16.0064 132.905 15.3986 132.905 14.7413H134.124C134.124 16.7651 133.692 18.3609 132.83 19.5186C131.964 20.6824 130.631 21.2592 128.824 21.2592L128.828 21.2633ZM133.058 20.9057L132.909 18.1046V13.2529C132.909 12.2379 132.797 11.3965 132.584 10.7226C132.365 10.0487 132.022 9.53192 131.557 9.17429C131.092 8.81666 130.482 8.63888 129.723 8.63888C129.031 8.63888 128.411 8.78772 127.877 9.0854C127.342 9.38308 126.895 9.83993 126.538 10.4539L123.501 9.38308C123.836 8.72777 124.274 8.11381 124.814 7.53706C125.349 6.96031 126.027 6.50346 126.852 6.16857C127.675 5.83369 128.652 5.66211 129.783 5.66211C131.23 5.66211 132.44 5.93291 133.403 6.46625C134.366 7.00166 135.088 7.79753 135.561 8.84767C136.037 9.89988 136.276 11.2022 136.276 12.7464L136.187 20.9057H133.062H133.058Z" fill="#46ADB4"/>
<path d="M0 20.9333L8.30809 0.0917969H11.7913L3.66515 20.9333H0ZM16.6451 20.9333L8.51688 0.0917969H11.9691L20.3061 20.9333H16.6451Z" fill="#46ADB4"/>
<path d="M13.5144 12.9121C12.4064 13.187 11.2487 13.3359 10.058 13.3359C8.8673 13.3359 7.82957 13.2015 6.77943 12.9535L5.64453 15.8703C7.05436 16.2382 8.53862 16.4388 10.0642 16.4388C11.5898 16.4388 13.194 16.2196 14.6555 15.8207L13.5206 12.9142H13.5164L13.5144 12.9121Z" fill="#46ADB4"/>
<path d="M148.841 9.16013V6.30739H144.186V1.19727L140.831 3.13217V6.30739H138.344V9.16013H140.831V17.9375L140.81 21.2037C141.366 21.2802 141.932 21.3194 142.507 21.3194C144.736 21.3194 146.825 20.7344 148.634 19.7091L147.266 16.7716C146.333 17.3339 145.294 17.7349 144.186 17.9395V9.1622H148.841V9.16013Z" fill="#46ADB4"/>
<path d="M45.5022 21.3404C43.9725 21.3404 42.6247 21.0096 41.4567 20.3461C40.2846 19.6804 39.3688 18.7647 38.7053 17.5946C38.0396 16.4225 37.7109 15.0747 37.7109 13.5491C37.7109 12.0235 38.0417 10.6716 38.7053 9.50359C39.3709 8.33148 40.2805 7.41571 41.4443 6.75214C42.6061 6.0865 43.9415 5.75781 45.4464 5.75781C46.9513 5.75781 48.2454 6.1113 49.4361 6.81415C50.6268 7.517 51.5095 8.5258 52.0863 9.83641L49.1798 11.4385L48.9896 11.0271C48.6733 10.3718 48.1855 9.84674 47.5302 9.45191C46.8749 9.05707 46.1307 8.85655 45.2996 8.85655C44.4686 8.85655 43.7616 9.0612 43.1291 9.46638C42.4924 9.87568 41.9983 10.4297 41.6407 11.1305C41.2831 11.8333 41.1053 12.6416 41.1053 13.5574C41.1053 14.4731 41.2872 15.2773 41.6531 15.9843C42.0211 16.6913 42.5275 17.2432 43.1684 17.6484C43.8154 18.0577 44.5389 18.2582 45.3534 18.2582C46.1679 18.2582 46.9286 18.0453 47.586 17.6174C48.2413 17.1895 48.725 16.6086 49.0454 15.8788L49.1798 15.4799L52.1421 17.0696C51.5653 18.4174 50.6868 19.4675 49.5105 20.222C48.3302 20.9745 46.9948 21.3507 45.5084 21.3507L45.5043 21.3466L45.5022 21.3404Z" fill="#46ADB4"/>
<path d="M170.171 0L170.2 20.9718H166.886L166.859 1.85635M176.91 13.4017C176.91 12.2192 176.772 11.3076 176.495 10.6668C176.218 10.0239 175.837 9.57529 175.358 9.32102C174.872 9.06676 174.318 8.93652 173.685 8.93652C172.563 8.91792 171.699 9.28381 171.097 10.0321C170.496 10.7805 170.196 11.8575 170.196 13.257H168.925C168.925 11.9216 168.528 10.5076 168.947 9.20319C169.313 8.07657 170.057 7.04503 171.101 6.45794C171.868 6.02797 172.755 5.85225 173.634 5.81918C175.492 5.7551 177.437 6.02797 178.74 7.47294C179.724 8.56856 180.218 10.2513 180.218 12.5149L176.904 13.4017L176.908 13.3975L176.91 13.4017ZM176.91 20.9718V13.4017L180.224 12.5149V20.9718H176.91Z" fill="#46ADB4"/>
<path d="M22.2852 20.9322V6.12486H25.3942L25.603 8.84944V20.9302H22.2852V20.9322ZM32.3256 13.3539C32.3256 12.1694 32.1912 11.2577 31.9266 10.6148C31.662 9.97193 31.2837 9.52335 30.802 9.26908C30.3162 9.01481 29.7519 8.88458 29.0987 8.88458C27.9927 8.86597 27.1327 9.23187 26.5209 9.9802C25.911 10.7306 25.6051 11.8076 25.6051 13.2092H24.3606C24.3606 11.6505 24.1663 9.84996 24.619 8.72954C25.0035 7.78069 25.6981 6.93521 26.5953 6.41634C27.6309 5.81478 28.8485 5.77344 30.0144 5.77344C31.8088 5.77344 33.1979 6.31918 34.1736 7.41686C35.1494 8.51248 35.6414 10.1973 35.6414 12.465L32.3235 13.3539H32.3256ZM32.3256 20.9322V13.3539L35.6434 12.465V20.9322H32.3256Z" fill="#46ADB4"/>
<path d="M87.0312 21.0186V6.21292H90.3487V21.0186H87.0312ZM89.2244 13.1438C89.2244 10.8536 88.7709 8.66049 91.0473 7.28634C91.7413 6.8653 92.5186 6.61545 93.3052 6.43964C93.4995 6.39337 94.6146 6.13427 94.6146 6.21755L95.5908 9.33138C94.684 9.33138 93.828 9.4563 93.0276 9.70152C92.2271 9.94674 91.5794 10.3493 91.0889 10.8999C90.5939 11.4504 90.3487 12.1815 90.3487 13.093L89.2244 13.1531V13.1438Z" fill="#46ADB4"/>
<path d="M57.421 0L57.45 20.9718H54.1362L54.1094 1.85635M64.1601 13.4017C64.1601 12.2192 64.0216 11.3076 63.7446 10.6668C63.4676 10.0239 63.0872 9.57529 62.6076 9.32102C62.1219 9.06676 61.5678 8.93652 60.9353 8.93652C59.8128 8.91792 58.9487 9.28381 58.3471 10.0321C57.7456 10.7805 57.4458 11.8575 57.4458 13.257H56.1745C56.1745 11.9216 55.7776 10.5076 56.1972 9.20319C56.5631 8.07657 57.3073 7.04503 58.3513 6.45794C59.1182 6.02797 60.005 5.85225 60.8836 5.81918C62.742 5.7551 64.6873 6.02797 65.9896 7.47294C66.9736 8.56856 67.4676 10.2513 67.4676 12.5149L64.1539 13.4017L64.158 13.3975L64.1601 13.4017ZM64.1601 20.9718V13.4017L67.4738 12.5149V20.9718H64.1601Z" fill="#46ADB4"/>
</svg>
